SplineFontDB: 3.2
FontName: icomoon
FullName: icomoon
FamilyName: icomoon
Weight: Book
Version: 1.0
ItalicAngle: 0
UnderlinePosition: 0
UnderlineWidth: 0
Ascent: 960
Descent: 64
InvalidEm: 0
sfntRevision: 0x00010000
LayerCount: 2
Layer: 0 1 "Back" 1
Layer: 1 1 "Fore" 0
XUID: [1021 209 -851518555 14820232]
StyleMap: 0x0040
FSType: 0
OS2Version: 3
OS2_WeightWidthSlopeOnly: 0
OS2_UseTypoMetrics: 0
CreationTime: 1630191356
ModificationTime: 1739900423
PfmFamily: 81
TTFWeight: 400
TTFWidth: 5
LineGap: 0
VLineGap: 0
Panose: 0 0 0 0 0 0 0 0 0 0
OS2TypoAscent: 960
OS2TypoAOffset: 0
OS2TypoDescent: -64
OS2TypoDOffset: 0
OS2TypoLinegap: 64
OS2WinAscent: 960
OS2WinAOffset: 0
OS2WinDescent: 64
OS2WinDOffset: 0
HheadAscent: 960
HheadAOffset: 0
HheadDescent: -64
HheadDOffset: 0
OS2SubXSize: 665
OS2SubYSize: 716
OS2SubXOff: 0
OS2SubYOff: 143
OS2SupXSize: 665
OS2SupYSize: 716
OS2SupXOff: 0
OS2SupYOff: 491
OS2StrikeYSize: 51
OS2StrikeYPos: 265
OS2CodePages: 00000001.00000000
OS2UnicodeRanges: 00000001.10000000.00000000.00000000
DEI: 91125
ShortTable: maxp 16
  1
  0
  29
  323
  15
  0
  0
  2
  0
  0
  0
  0
  0
  0
  0
  0
EndShort
LangName: 1033 "" "" "Regular" "icomoon" "" "Version 1.0" "" "" "" "" "Font generated by IcoMoon."
GaspTable: 1 65535 15 1
Encoding: UnicodeBmp
UnicodeInterp: none
NameList: AGL For New Fonts
DisplaySize: -48
AntiAlias: 1
FitToEm: 0
WinInfo: 59632 16 4
BeginChars: 65536 30

StartChar: uni0000
Encoding: 0 0 1
Width: 0
GlyphClass: 1
Flags: W
LayerCount: 2
Fore
SplineSet
0 0 m 1,0,-1
 0 0 l 1,1,-1
 0 0 l 1,2,-1
 0 0 l 1,0,-1
EndSplineSet
EndChar

StartChar: uni0001
Encoding: 1 1 2
Width: 0
GlyphClass: 1
Flags: W
LayerCount: 2
Fore
SplineSet
0 0 m 1,0,-1
 0 0 l 1,1,-1
 0 0 l 1,2,-1
 0 0 l 1,0,-1
EndSplineSet
EndChar

StartChar: space
Encoding: 32 32 3
Width: 512
GlyphClass: 1
Flags: W
LayerCount: 2
Fore
SplineSet
0 0 m 1,0,-1
 0 0 l 1,1,-1
 0 0 l 1,2,-1
 0 0 l 1,0,-1
EndSplineSet
EndChar

StartChar: uniE900
Encoding: 59648 59648 4
Width: 1024
GlyphClass: 1
Flags: W
LayerCount: 2
Fore
SplineSet
0 647 m 1,0,-1
 0 306 l 1,1,-1
 284 306 l 1,2,-1
 284 249 l 1,3,-1
 512 249 l 1,4,-1
 512 306 l 1,5,-1
 1024 306 l 1,6,-1
 1024 647 l 1,7,-1
 0 647 l 1,0,-1
284 363 m 1,8,-1
 228 363 l 1,9,-1
 228 533 l 1,10,-1
 171 533 l 1,11,-1
 171 363 l 1,12,-1
 57 363 l 1,13,-1
 57 590 l 1,14,-1
 284 590 l 1,15,-1
 284 363 l 1,8,-1
455 363 m 1,16,-1
 455 306 l 1,17,-1
 341 306 l 1,18,-1
 341 590 l 1,19,-1
 569 590 l 1,20,-1
 569 363 l 1,21,-1
 455 363 l 1,22,-1
 455 363 l 1,16,-1
967 363 m 1,23,-1
 910 363 l 1,24,-1
 910 533 l 1,25,-1
 853 533 l 1,26,-1
 853 363 l 1,27,-1
 796 363 l 1,28,-1
 796 533 l 1,29,-1
 740 533 l 1,30,-1
 740 363 l 1,31,-1
 626 363 l 1,32,-1
 626 590 l 1,33,-1
 967 590 l 1,34,-1
 967 363 l 1,23,-1
455 533 m 1,35,-1
 512 533 l 1,36,-1
 512 420 l 1,37,-1
 455 420 l 1,38,-1
 455 533 l 1,35,-1
EndSplineSet
EndChar

StartChar: uniE901
Encoding: 59649 59649 5
Width: 1024
GlyphClass: 1
Flags: W
LayerCount: 2
Fore
SplineSet
0 947 m 1,0,-1
 0 -51 l 1,1,-1
 1024 -51 l 1,2,-1
 1024 947 l 1,3,-1
 0 947 l 1,0,-1
43 905 m 1,4,-1
 981 905 l 1,5,-1
 981 -9 l 1,6,-1
 43 -9 l 1,7,-1
 43 905 l 1,4,-1
247 713 m 2,8,9
 247 716 247 716 250.5 717 c 128,-1,10
 254 718 254 718 257 718 c 0,11,12
 278 719 278 719 306.5 719.5 c 128,-1,13
 335 720 335 720 367 720 c 0,14,15
 456 720 456 720 493.5 677.5 c 128,-1,16
 531 635 531 635 531 573 c 0,17,18
 531 491 531 491 480 454.5 c 128,-1,19
 429 418 429 418 356 418 c 0,20,21
 344 418 344 418 338 418 c 128,-1,22
 332 418 332 418 323 418 c 1,23,-1
 323 255 l 2,24,25
 323 252 323 252 322 251 c 128,-1,26
 321 250 321 250 318 250 c 2,27,-1
 252 250 l 2,28,29
 250 250 250 250 249 251 c 128,-1,30
 248 252 248 252 248 254 c 2,31,-1
 247 713 l 2,8,9
323 487 m 1,32,33
 331 486 331 486 338 486 c 128,-1,34
 345 486 345 486 358 486 c 0,35,36
 395 486 395 486 425 503.5 c 128,-1,37
 455 521 455 521 455 571 c 0,38,39
 455 612 455 612 431 632.5 c 128,-1,40
 407 653 407 653 364 653 c 0,41,42
 351 653 351 653 340 652.5 c 128,-1,43
 329 652 329 652 323 651 c 1,44,-1
 323 487 l 1,32,33
690 537 m 1,45,46
 665 537 665 537 655 527 c 128,-1,47
 645 517 645 517 645 506 c 256,48,49
 645 495 645 495 654.5 485 c 128,-1,50
 664 475 664 475 698 457 c 0,51,52
 748 433 748 433 767 407.5 c 128,-1,53
 786 382 786 382 786 348 c 0,54,55
 786 297 786 297 751 270 c 128,-1,56
 716 243 716 243 664 243 c 0,57,58
 636 243 636 243 613 248.5 c 128,-1,59
 590 254 590 254 576 261 c 0,60,61
 574 263 574 263 573.5 264.5 c 128,-1,62
 573 266 573 266 573 269 c 2,63,-1
 573 331 l 2,64,65
 573 334 573 334 574.5 335 c 128,-1,66
 576 336 576 336 578 335 c 0,67,68
 598 321 598 321 620 315 c 128,-1,69
 642 309 642 309 664 309 c 0,70,71
 689 309 689 309 700 318.5 c 128,-1,72
 711 328 711 328 711 342 c 0,73,74
 711 354 711 354 701 365.5 c 128,-1,75
 691 377 691 377 659 394 c 0,76,77
 613 416 613 416 593 440.5 c 128,-1,78
 573 465 573 465 573 502 c 0,79,80
 573 543 573 543 603.5 572.5 c 128,-1,81
 634 602 634 602 690 602 c 0,82,83
 718 602 718 602 737 598.5 c 128,-1,84
 756 595 756 595 767 590 c 0,85,86
 769 589 769 589 770 586.5 c 128,-1,87
 771 584 771 584 771 582 c 2,88,-1
 771 524 l 2,89,90
 771 521 771 521 769.5 519.5 c 128,-1,91
 768 518 768 518 765 519 c 0,92,93
 750 528 750 528 730.5 533 c 128,-1,94
 711 538 711 538 690 537 c 1,95,-1
 690 537 l 1,45,46
EndSplineSet
EndChar

StartChar: uniE902
Encoding: 59650 59650 6
Width: 1024
GlyphClass: 1
Flags: W
LayerCount: 2
Fore
SplineSet
810 27 m 1,0,-1
 810 300 l 1,1,-1
 901 300 l 1,2,-1
 901 -64 l 1,3,-1
 79 -64 l 1,4,-1
 79 300 l 1,5,-1
 170 300 l 1,6,-1
 170 27 l 1,7,-1
 810 27 l 1,0,-1
261 118 m 1,8,-1
 719 118 l 1,9,-1
 719 209 l 1,10,-1
 261 209 l 1,11,-1
 261 118 l 1,8,-1
272 325 m 1,12,-1
 719 232 l 1,13,-1
 738 320 l 1,14,-1
 291 413 l 1,15,-1
 272 325 l 1,12,-1
330 541 m 1,16,-1
 744 348 l 1,17,-1
 782 431 l 1,18,-1
 368 624 l 1,19,-1
 330 541 l 1,20,-1
 330 541 l 1,16,-1
446 745 m 1,21,-1
 796 453 l 1,22,-1
 854 522 l 1,23,-1
 504 814 l 1,24,-1
 446 745 l 1,25,-1
 446 745 l 1,21,-1
672 960 m 1,26,-1
 598 905 l 1,27,-1
 871 538 l 1,28,-1
 945 593 l 1,29,-1
 672 960 l 1,30,-1
 672 960 l 1,26,-1
EndSplineSet
EndChar

StartChar: uniE903
Encoding: 59651 59651 7
Width: 1024
GlyphClass: 1
Flags: W
LayerCount: 2
Fore
SplineSet
512 960 m 256,0,1
 405 960 405 960 312 920 c 256,2,3
 219 880 219 880 149.5 810.5 c 128,-1,4
 80 741 80 741 40 648 c 256,5,6
 0 555 0 555 0 448 c 256,7,8
 0 341 0 341 40 248 c 256,9,10
 80 155 80 155 149.5 85.5 c 128,-1,11
 219 16 219 16 312 -24 c 256,12,13
 405 -64 405 -64 512 -64 c 256,14,15
 619 -64 619 -64 712 -24 c 256,16,17
 805 16 805 16 874.5 85.5 c 128,-1,18
 944 155 944 155 984 248 c 256,19,20
 1024 341 1024 341 1024 448 c 256,21,22
 1024 555 1024 555 984 648 c 256,23,24
 944 741 944 741 874.5 810.5 c 128,-1,25
 805 880 805 880 712 920 c 256,26,27
 619 960 619 960 512 960 c 256,0,1
112 444 m 1,28,-1
 508 47 l 1,29,30
 426 47 426 47 354 79 c 0,31,32
 282 110 282 110 228 164 c 128,-1,33
 174 218 174 218 143 290 c 256,34,35
 112 362 112 362 112 444 c 1,28,-1
601 56 m 1,36,-1
 120 537 l 1,37,38
 135 604 135 604 172 661 c 0,39,40
 208 718 208 718 259.5 759.5 c 128,-1,41
 311 801 311 801 376 825 c 0,42,43
 440 848 440 848 512 848 c 0,44,45
 562 848 562 848 608 837 c 0,46,47
 655 825 655 825 696.5 803.5 c 128,-1,48
 738 782 738 782 773 752 c 0,49,50
 809 722 809 722 836 685 c 1,51,-1
 837 684 l 1,52,-1
 779 635 l 1,53,54
 757 667 757 667 727 694 c 0,55,56
 698 720 698 720 663.5 738.5 c 128,-1,57
 629 757 629 757 590 767 c 256,58,59
 551 777 551 777 509 777 c 2,60,61
 509 777 509 777 508.5 777 c 128,-1,62
 508 777 508 777 508 777 c 1,63,-1
 508 777 l 1,64,65
 507 777 507 777 506.5 777 c 128,-1,66
 506 777 506 777 506 777 c 2,67,68
 453 777 453 777 405 761 c 256,69,70
 357 745 357 745 317 716.5 c 128,-1,71
 277 688 277 688 248 648 c 0,72,73
 218 609 218 609 201 561 c 1,74,-1
 201 559 l 1,75,-1
 619 141 l 1,76,77
 657 154 657 154 691 177 c 256,78,79
 725 200 725 200 751.5 230 c 128,-1,80
 778 260 778 260 797 296 c 0,81,82
 815 332 815 332 824 372 c 1,83,-1
 650 372 l 1,84,-1
 650 448 l 1,85,-1
 913 448 l 1,86,87
 913 376 913 376 889 312 c 0,88,89
 865 247 865 247 823.5 195.5 c 128,-1,90
 782 144 782 144 725 108 c 0,91,92
 668 71 668 71 601 56 c 1,93,-1
 601 56 l 1,36,-1
EndSplineSet
EndChar

StartChar: uniE904
Encoding: 59652 59652 8
Width: 1024
GlyphClass: 1
Flags: W
LayerCount: 2
Fore
SplineSet
512 539 m 1,0,1
 474 539 474 539 447.5 512.5 c 128,-1,2
 421 486 421 486 421 448 c 256,3,4
 421 410 421 410 447.5 383.5 c 128,-1,5
 474 357 474 357 512 357 c 1,6,-1
 512 357 l 1,7,8
 550 357 550 357 576.5 383.5 c 128,-1,9
 603 410 603 410 603 448 c 256,10,11
 603 486 603 486 576.5 512.5 c 128,-1,12
 550 539 550 539 512 539 c 1,13,-1
 512 539 l 1,0,1
256 266 m 1,14,-1
 236 272 l 1,15,16
 124 300 124 300 62 346 c 128,-1,17
 0 392 0 392 0 448 c 256,18,19
 0 504 0 504 62 550 c 128,-1,20
 124 596 124 596 236 625 c 2,21,-1
 256 630 l 1,22,-1
 262 610 l 2,23,24
 275 565 275 565 290 526.5 c 128,-1,25
 305 488 305 488 323 451 c 1,26,-1
 320 457 l 1,27,-1
 324 448 l 1,28,-1
 320 439 l 2,29,30
 304 407 304 407 289.5 370 c 128,-1,31
 275 333 275 333 264 293 c 2,32,-1
 262 286 l 1,33,-1
 256 266 l 1,14,-1
227 578 m 1,34,35
 141 554 141 554 92 519.5 c 128,-1,36
 43 485 43 485 43 448 c 0,37,38
 43 412 43 412 92 377 c 128,-1,39
 141 342 141 342 227 318 c 1,40,41
 239 357 239 357 252 390 c 128,-1,42
 265 423 265 423 280 455 c 1,43,-1
 277 448 l 1,44,45
 265 475 265 475 252.5 506 c 128,-1,46
 240 537 240 537 229 571 c 2,47,-1
 227 578 l 1,48,-1
 227 578 l 1,34,35
768 266 m 1,49,-1
 762 286 l 2,50,51
 749 331 749 331 734 370 c 128,-1,52
 719 409 719 409 701 445 c 1,53,-1
 704 439 l 1,54,-1
 699 448 l 1,55,-1
 704 457 l 2,56,57
 720 489 720 489 734 526.5 c 128,-1,58
 748 564 748 564 760 603 c 2,59,-1
 762 610 l 1,60,-1
 768 630 l 1,61,-1
 788 625 l 2,62,63
 900 596 900 596 962 550 c 128,-1,64
 1024 504 1024 504 1024 448 c 256,65,66
 1024 392 1024 392 962 346 c 128,-1,67
 900 300 900 300 788 272 c 1,68,-1
 768 266 l 1,49,-1
747 448 m 1,69,70
 762 415 762 415 774.5 382.5 c 128,-1,71
 787 350 787 350 797 318 c 1,72,73
 883 342 883 342 932 377 c 128,-1,74
 981 412 981 412 981 448 c 0,75,76
 981 485 981 485 932 519.5 c 128,-1,77
 883 554 883 554 797 578 c 1,78,79
 785 539 785 539 772 506 c 128,-1,80
 759 473 759 473 744 442 c 1,81,-1
 747 448 l 1,82,-1
 747 448 l 1,69,70
227 578 m 1,83,-1
 221 598 l 2,84,85
 189 710 189 710 198.5 786.5 c 128,-1,86
 208 863 208 863 256 891 c 0,87,88
 303 918 303 918 375 887.5 c 128,-1,89
 447 857 447 857 527 775 c 2,90,-1
 542 760 l 1,91,-1
 527 745 l 2,92,93
 500 717 500 717 474.5 686 c 128,-1,94
 449 655 449 655 426 622 c 2,95,-1
 424 619 l 1,96,-1
 418 610 l 1,97,-1
 408 609 l 2,98,99
 363 606 363 606 321.5 599 c 128,-1,100
 280 592 280 592 240 582 c 1,101,-1
 247 583 l 1,102,-1
 227 578 l 1,83,-1
307 861 m 1,103,104
 299 861 299 861 291.5 859.5 c 128,-1,105
 284 858 284 858 277 854 c 0,106,107
 246 836 246 836 240.5 776 c 128,-1,108
 235 716 235 716 257 630 c 1,109,110
 286 637 286 637 320 642 c 128,-1,111
 354 647 354 647 390 651 c 1,112,-1
 395 651 l 1,113,114
 416 681 416 681 438 708 c 128,-1,115
 460 735 460 735 483 760 c 1,116,-1
 482 760 l 1,117,118
 432 808 432 808 386.5 834.5 c 128,-1,119
 341 861 341 861 307 861 c 1,120,-1
 307 861 l 1,103,104
717 -8 m 1,121,122
 717 -8 717 -8 717 -8 c 129,-1,123
 717 -8 717 -8 717 -8 c 1,124,125
 671 -8 671 -8 614 25.5 c 128,-1,126
 557 59 557 59 497 121 c 2,127,-1
 482 136 l 1,128,-1
 497 151 l 2,129,130
 524 180 524 180 549.5 211 c 128,-1,131
 575 242 575 242 598 275 c 2,132,-1
 600 278 l 1,133,-1
 606 286 l 1,134,-1
 616 287 l 2,135,136
 661 291 661 291 702.5 297.5 c 128,-1,137
 744 304 744 304 784 314 c 1,138,-1
 777 313 l 1,139,-1
 797 318 l 1,140,-1
 803 298 l 2,141,142
 835 187 835 187 825.5 110 c 128,-1,143
 816 33 816 33 768 6 c 0,144,145
 757 -1 757 -1 744.5 -4.5 c 128,-1,146
 732 -8 732 -8 718 -8 c 2,147,148
 718 -8 718 -8 717.5 -8 c 128,-1,149
 717 -8 717 -8 717 -8 c 1,150,-1
 717 -8 l 1,151,-1
 717 -8 l 1,121,122
542 137 m 1,152,153
 592 88 592 88 637.5 61.5 c 128,-1,154
 683 35 683 35 717 35 c 1,155,-1
 717 35 l 1,156,157
 725 35 725 35 732.5 37 c 128,-1,158
 740 39 740 39 747 42 c 0,159,160
 778 61 778 61 783.5 121 c 128,-1,161
 789 181 789 181 767 267 c 1,162,163
 738 260 738 260 703.5 254.5 c 128,-1,164
 669 249 669 249 633 246 c 1,165,-1
 629 245 l 1,166,167
 608 215 608 215 586 188 c 128,-1,168
 564 161 564 161 541 136 c 1,169,-1
 542 137 l 1,170,-1
 542 137 l 1,152,153
797 578 m 1,171,-1
 777 583 l 2,172,173
 742 592 742 592 702 599 c 128,-1,174
 662 606 662 606 619 609 c 2,175,-1
 616 609 l 1,176,-1
 606 610 l 1,177,-1
 600 619 l 2,178,179
 575 654 575 654 549.5 685.5 c 128,-1,180
 524 717 524 717 496 745 c 1,181,-1
 497 745 l 1,182,-1
 482 760 l 1,183,-1
 497 775 l 2,184,185
 576 857 576 857 648 887.5 c 128,-1,186
 720 918 720 918 768 891 c 0,187,188
 816 863 816 863 825.5 786.5 c 128,-1,189
 835 710 835 710 803 598 c 2,190,-1
 797 578 l 1,171,-1
629 651 m 1,191,192
 666 648 666 648 700.5 642.5 c 128,-1,193
 735 637 735 637 767 630 c 1,194,195
 789 716 789 716 783.5 776 c 128,-1,196
 778 836 778 836 747 854 c 0,197,198
 715 872 715 872 659.5 846.5 c 128,-1,199
 604 821 604 821 542 760 c 1,200,201
 564 735 564 735 585.5 708.5 c 128,-1,202
 607 682 607 682 627 654 c 2,203,-1
 629 651 l 1,204,-1
 629 651 l 1,191,192
307 -8 m 1,205,206
 307 -8 307 -8 306.5 -8 c 128,-1,207
 306 -8 306 -8 306 -8 c 2,208,209
 292 -8 292 -8 279.5 -4.5 c 128,-1,210
 267 -1 267 -1 256 6 c 1,211,-1
 256 6 l 1,212,213
 208 33 208 33 198.5 110 c 128,-1,214
 189 187 189 187 221 298 c 2,215,-1
 227 318 l 1,216,-1
 247 313 l 2,217,218
 284 304 284 304 324.5 297.5 c 128,-1,219
 365 291 365 291 408 287 c 2,220,-1
 418 286 l 1,221,-1
 424 278 l 2,222,223
 448 242 448 242 474 211 c 128,-1,224
 500 180 500 180 528 151 c 1,225,-1
 527 151 l 1,226,-1
 542 136 l 1,227,-1
 527 121 l 2,228,229
 466 59 466 59 409.5 25.5 c 128,-1,230
 353 -8 353 -8 307 -8 c 1,231,-1
 307 -8 l 1,205,206
257 267 m 1,232,233
 235 181 235 181 240.5 121 c 128,-1,234
 246 61 246 61 277 42 c 0,235,236
 309 24 309 24 364.5 50 c 128,-1,237
 420 76 420 76 482 137 c 1,238,239
 460 161 460 161 438.5 187.5 c 128,-1,240
 417 214 417 214 397 242 c 2,241,-1
 395 245 l 1,242,243
 356 249 356 249 320 254.5 c 128,-1,244
 284 260 284 260 250 268 c 1,245,-1
 257 267 l 1,246,-1
 257 267 l 1,232,233
512 240 m 1,247,248
 486 240 486 240 459 241 c 128,-1,249
 432 242 432 242 405 244 c 2,250,-1
 395 245 l 1,251,-1
 389 253 l 2,252,253
 376 272 376 272 362 293.5 c 128,-1,254
 348 315 348 315 335 338 c 2,255,-1
 331 344 l 2,256,257
 320 362 320 362 308 384.5 c 128,-1,258
 296 407 296 407 285 431 c 2,259,-1
 282 439 l 1,260,-1
 277 448 l 1,261,-1
 282 457 l 2,262,263
 296 487 296 487 308.5 511.5 c 128,-1,264
 321 536 321 536 335 558 c 1,265,-1
 331 552 l 1,266,267
 345 575 345 575 359 598 c 128,-1,268
 373 621 373 621 389 643 c 2,269,-1
 395 651 l 1,270,-1
 405 652 l 2,271,272
 429 654 429 654 456.5 655 c 128,-1,273
 484 656 484 656 512 656 c 256,274,275
 540 656 540 656 568 655 c 128,-1,276
 596 654 596 654 624 652 c 1,277,-1
 619 652 l 1,278,-1
 629 651 l 1,279,-1
 635 643 l 2,280,281
 663 603 663 603 689.5 558 c 128,-1,282
 716 513 716 513 739 465 c 1,283,-1
 742 457 l 1,284,-1
 747 448 l 1,285,-1
 742 439 l 2,286,287
 717 386 717 386 690 339 c 128,-1,288
 663 292 663 292 632 249 c 1,289,-1
 635 253 l 1,290,-1
 629 245 l 1,291,-1
 619 244 l 2,292,293
 592 242 592 242 565 241 c 128,-1,294
 538 240 538 240 512 240 c 1,295,-1
 512 240 l 1,247,248
418 286 m 1,296,297
 466 283 466 283 512 283 c 128,-1,298
 558 283 558 283 606 286 c 1,299,300
 630 321 630 321 653 360 c 128,-1,301
 676 399 676 399 696 441 c 2,302,-1
 699 448 l 1,303,304
 677 495 677 495 653 536 c 128,-1,305
 629 577 629 577 603 614 c 1,306,-1
 606 610 l 1,307,308
 585 612 585 612 561 613 c 128,-1,309
 537 614 537 614 512 614 c 256,310,311
 487 614 487 614 462.5 613 c 128,-1,312
 438 612 438 612 414 610 c 1,313,-1
 418 610 l 1,314,315
 394 575 394 575 371 536 c 128,-1,316
 348 497 348 497 328 455 c 2,317,-1
 325 448 l 1,318,319
 347 401 347 401 371 360.5 c 128,-1,320
 395 320 395 320 421 282 c 1,321,-1
 418 286 l 1,322,-1
 418 286 l 1,296,297
EndSplineSet
EndChar

StartChar: uniE905
Encoding: 59653 59653 9
Width: 1024
GlyphClass: 1
Flags: W
LayerCount: 2
Fore
SplineSet
853 960 m 1,0,-1
 171 960 l 2,1,2
 100 960 100 960 50 910 c 128,-1,3
 0 860 0 860 0 789 c 2,4,-1
 0 107 l 2,5,6
 0 36 0 36 50 -14 c 128,-1,7
 100 -64 100 -64 171 -64 c 2,8,-1
 853 -64 l 2,9,10
 924 -64 924 -64 974 -14 c 128,-1,11
 1024 36 1024 36 1024 107 c 2,12,-1
 1024 789 l 2,13,14
 1024 860 1024 860 974 910 c 128,-1,15
 924 960 924 960 853 960 c 1,16,-1
 853 960 l 1,0,-1
760 241 m 1,17,18
 754 225 754 225 744 212 c 128,-1,19
 734 199 734 199 721 188 c 0,20,21
 707 177 707 177 690 168.5 c 128,-1,22
 673 160 673 160 652 153 c 0,23,24
 631 147 631 147 606 143.5 c 128,-1,25
 581 140 581 140 553 140 c 2,26,-1
 278 140 l 1,27,-1
 278 738 l 1,28,-1
 568 738 l 2,29,30
 609 738 609 738 641 728.5 c 128,-1,31
 673 719 673 719 697 701 c 0,32,33
 721 682 721 682 733.5 654.5 c 128,-1,34
 746 627 746 627 746 589 c 0,35,36
 746 567 746 567 740.5 547.5 c 128,-1,37
 735 528 735 528 724 512 c 256,38,39
 713 496 713 496 697 484 c 128,-1,40
 681 472 681 472 660 463 c 1,41,-1
 660 461 l 1,42,43
 688 455 688 455 709 442 c 128,-1,44
 730 429 730 429 744 409 c 256,45,46
 758 389 758 389 765 363.5 c 128,-1,47
 772 338 772 338 772 307 c 0,48,49
 772 290 772 290 768.5 273.5 c 128,-1,50
 765 257 765 257 759 242 c 1,51,-1
 760 241 l 1,17,18
642 388 m 1,52,53
 628 400 628 400 610 406 c 128,-1,54
 592 412 592 412 568 412 c 2,55,-1
 383 412 l 1,56,-1
 383 225 l 1,57,-1
 568 225 l 2,58,59
 592 225 592 225 610.5 231.5 c 128,-1,60
 629 238 629 238 642 250 c 0,61,62
 655 263 655 263 662 280.5 c 128,-1,63
 669 298 669 298 669 320 c 0,64,65
 668 342 668 342 661.5 359 c 128,-1,66
 655 376 655 376 642 388 c 1,67,-1
 642 388 l 1,52,53
616 509 m 1,68,69
 629 519 629 519 635 534.5 c 128,-1,70
 641 550 641 550 641 570 c 0,71,72
 641 593 641 593 635.5 609 c 128,-1,73
 630 625 630 625 619 634 c 0,74,75
 607 643 607 643 591 647.5 c 128,-1,76
 575 652 575 652 553 652 c 2,77,-1
 383 652 l 1,78,-1
 383 487 l 1,79,-1
 553 487 l 2,80,81
 572 487 572 487 588 492.5 c 128,-1,82
 604 498 604 498 616 509 c 1,83,-1
 616 509 l 1,68,69
EndSplineSet
EndChar

StartChar: uniE906
Encoding: 59654 59654 10
Width: 1024
GlyphClass: 1
Flags: W
LayerCount: 2
Fore
SplineSet
1005 494 m 1,0,-1
 558 941 l 2,1,2
 538 960 538 960 511 960 c 128,-1,3
 484 960 484 960 464 941 c 2,4,-1
 372 848 l 1,5,-1
 489 730 l 1,6,7
 510 737 510 737 532 732.5 c 128,-1,8
 554 728 554 728 570 711 c 0,9,10
 586 695 586 695 591 673 c 128,-1,11
 596 651 596 651 589 630 c 1,12,-1
 702 517 l 1,13,14
 723 524 723 524 745 519.5 c 128,-1,15
 767 515 767 515 783 498 c 0,16,17
 806 475 806 475 806 442.5 c 128,-1,18
 806 410 806 410 783 387 c 256,19,20
 760 364 760 364 727.5 364 c 128,-1,21
 695 364 695 364 672 387 c 0,22,23
 655 404 655 404 650.5 427.5 c 128,-1,24
 646 451 646 451 655 472 c 1,25,-1
 549 578 l 1,26,-1
 549 300 l 1,27,28
 554 297 554 297 559.5 293 c 128,-1,29
 565 289 565 289 570 285 c 0,30,31
 592 262 592 262 592 229.5 c 128,-1,32
 592 197 592 197 570 174 c 0,33,34
 547 151 547 151 514 151 c 128,-1,35
 481 151 481 151 458 174 c 256,36,37
 435 197 435 197 435 229.5 c 128,-1,38
 435 262 435 262 458 285 c 0,39,40
 464 290 464 290 470.5 294.5 c 128,-1,41
 477 299 477 299 484 302 c 1,42,-1
 484 583 l 1,43,44
 477 586 477 586 470.5 590 c 128,-1,45
 464 594 464 594 458 600 c 0,46,47
 441 618 441 618 437 641.5 c 128,-1,48
 433 665 433 665 442 686 c 1,49,-1
 326 802 l 1,50,-1
 19 496 l 2,51,52
 0 476 0 476 0 449 c 128,-1,53
 0 422 0 422 19 402 c 2,54,-1
 466 -45 l 2,55,56
 486 -64 486 -64 513 -64 c 128,-1,57
 540 -64 540 -64 560 -45 c 2,58,-1
 1005 400 l 2,59,60
 1024 420 1024 420 1024 447 c 128,-1,61
 1024 474 1024 474 1005 494 c 1,62,-1
 1005 494 l 1,0,-1
EndSplineSet
EndChar

StartChar: uniE907
Encoding: 59655 59655 11
Width: 1024
GlyphClass: 1
Flags: W
LayerCount: 2
Fore
SplineSet
0 960 m 1,0,-1
 1024 960 l 1,1,-1
 1024 -64 l 1,2,-1
 0 -64 l 1,3,-1
 0 960 l 1,0,-1
940 180 m 1,4,5
 935 215 935 215 907.5 245 c 128,-1,6
 880 275 880 275 812 303 c 0,7,8
 788 314 788 314 765.5 324 c 128,-1,9
 743 334 743 334 735 351 c 0,10,11
 732 362 732 362 731.5 368.5 c 128,-1,12
 731 375 731 375 733 382 c 0,13,14
 738 402 738 402 758.5 408.5 c 128,-1,15
 779 415 779 415 798 410 c 0,16,17
 810 406 810 406 821 396.5 c 128,-1,18
 832 387 832 387 840 371 c 1,19,20
 873 393 873 393 882 399 c 128,-1,21
 891 405 891 405 915 419 c 1,22,23
 906 433 906 433 900.5 440 c 128,-1,24
 895 447 895 447 890 453 c 0,25,26
 869 475 869 475 840.5 486.5 c 128,-1,27
 812 498 812 498 769 497 c 1,28,-1
 739 493 l 2,29,30
 717 488 717 488 697.5 476.5 c 128,-1,31
 678 465 678 465 666 450 c 0,32,33
 629 409 629 409 637.5 349 c 128,-1,34
 646 289 646 289 690 259 c 0,35,36
 734 227 734 227 785 211.5 c 128,-1,37
 836 196 836 196 844 165 c 0,38,39
 852 128 852 128 823.5 114.5 c 128,-1,40
 795 101 795 101 760 105 c 0,41,42
 734 111 734 111 717.5 124.5 c 128,-1,43
 701 138 701 138 685 162 c 1,44,-1
 607 117 l 1,45,46
 614 102 614 102 622 92.5 c 128,-1,47
 630 83 630 83 642 70 c 0,48,49
 670 42 670 42 714 29 c 0,50,51
 759 16 759 16 804 20.5 c 128,-1,52
 849 25 849 25 886 47 c 0,53,54
 923 70 923 70 935 113 c 0,55,56
 936 116 936 116 939.5 134.5 c 128,-1,57
 943 153 943 153 938 183 c 1,58,-1
 940 180 l 1,4,5
557 489 m 1,59,-1
 461 489 l 1,60,61
 461 427 461 427 461 365.5 c 128,-1,62
 461 304 461 304 461 242 c 0,63,64
 461 202 461 202 461 169.5 c 128,-1,65
 461 137 461 137 455 126 c 0,66,67
 444 104 444 104 422 103 c 128,-1,68
 400 102 400 102 388 106 c 0,69,70
 375 112 375 112 367.5 121 c 128,-1,71
 360 130 360 130 352 142 c 0,72,73
 350 145 350 145 349 147.5 c 128,-1,74
 348 150 348 150 347 150 c 2,75,-1
 269 102 l 1,76,77
 279 82 279 82 293 65.5 c 128,-1,78
 307 49 307 49 326 38 c 0,79,80
 353 21 353 21 388.5 16.5 c 128,-1,81
 424 12 424 12 462 20 c 0,82,83
 488 28 488 28 508 43 c 128,-1,84
 528 58 528 58 540 81 c 0,85,86
 556 110 556 110 556.5 146 c 128,-1,87
 557 182 557 182 557 223 c 0,88,89
 557 289 557 289 557 355 c 128,-1,90
 557 421 557 421 557 487 c 2,91,-1
 557 489 l 1,59,-1
EndSplineSet
EndChar

StartChar: uniE908
Encoding: 59656 59656 12
Width: 1024
GlyphClass: 1
Flags: W
LayerCount: 2
Fore
SplineSet
64 960 m 1,0,-1
 960 960 l 1,1,-1
 879 40 l 1,2,-1
 511 -64 l 1,3,-1
 146 40 l 1,4,-1
 64 960 l 1,0,-1
364 544 m 1,5,-1
 354 660 l 1,6,-1
 783 660 l 1,7,-1
 793 772 l 1,8,-1
 231 772 l 1,9,-1
 261 430 l 1,10,-1
 650 430 l 1,11,-1
 636 284 l 1,12,-1
 512 250 l 1,13,-1
 386 284 l 1,14,-1
 378 374 l 1,15,-1
 267 374 l 1,16,-1
 281 196 l 1,17,-1
 512 134 l 1,18,-1
 742 196 l 1,19,-1
 773 544 l 1,20,-1
 364 544 l 1,5,-1
EndSplineSet
EndChar

StartChar: uniE909
Encoding: 59657 59657 13
Width: 1024
GlyphClass: 1
Flags: W
LayerCount: 2
Fore
SplineSet
64 960 m 1,0,-1
 960 960 l 1,1,-1
 879 40 l 1,2,-1
 511 -64 l 1,3,-1
 146 40 l 1,4,-1
 64 960 l 1,0,-1
793 772 m 1,5,-1
 231 772 l 1,6,-1
 240 660 l 1,7,-1
 672 660 l 1,8,-1
 661 544 l 1,9,-1
 378 544 l 1,10,-1
 388 434 l 1,11,-1
 652 434 l 1,12,-1
 636 284 l 1,13,-1
 512 250 l 1,14,-1
 386 284 l 1,15,-1
 378 374 l 1,16,-1
 266 374 l 1,17,-1
 279 210 l 1,18,-1
 512 137 l 1,19,-1
 741 202 l 1,20,-1
 793 772 l 1,5,-1
EndSplineSet
EndChar

StartChar: uniE90A
Encoding: 59658 59658 14
Width: 1097
GlyphClass: 1
Flags: W
LayerCount: 2
Fore
SplineSet
353 151 m 1,0,-1
 324 123 l 2,1,2
 318 117 318 117 310.5 117 c 128,-1,3
 303 117 303 117 298 123 c 2,4,-1
 31 389 l 2,5,6
 26 395 26 395 26 402.5 c 128,-1,7
 26 410 26 410 31 415 c 2,8,-1
 298 682 l 2,9,10
 303 687 303 687 310.5 687 c 128,-1,11
 318 687 318 687 324 682 c 2,12,-1
 353 653 l 2,13,14
 358 648 358 648 358 640 c 128,-1,15
 358 632 358 632 353 627 c 2,16,-1
 128 402 l 1,17,-1
 353 178 l 2,18,19
 358 172 358 172 358 164.5 c 128,-1,20
 358 157 358 157 353 151 c 1,21,-1
 353 151 l 1,0,-1
690 761 m 1,22,-1
 477 23 l 2,23,24
 475 16 475 16 468.5 12.5 c 128,-1,25
 462 9 462 9 455 11 c 2,26,-1
 419 21 l 2,27,28
 412 23 412 23 408.5 29.5 c 128,-1,29
 405 36 405 36 407 43 c 2,30,-1
 620 781 l 2,31,32
 622 788 622 788 628.5 792 c 128,-1,33
 635 796 635 796 642 794 c 2,34,-1
 678 784 l 2,35,36
 685 782 685 782 688.5 775 c 128,-1,37
 692 768 692 768 690 761 c 1,38,-1
 690 761 l 1,22,-1
1066 389 m 1,39,-1
 799 123 l 2,40,41
 794 117 794 117 786.5 117 c 128,-1,42
 779 117 779 117 773 123 c 2,43,-1
 745 151 l 2,44,45
 739 157 739 157 739 164.5 c 128,-1,46
 739 172 739 172 745 178 c 2,47,-1
 969 402 l 1,48,-1
 745 627 l 2,49,50
 739 632 739 632 739 640 c 128,-1,51
 739 648 739 648 745 653 c 2,52,-1
 773 682 l 2,53,54
 779 687 779 687 786.5 687 c 128,-1,55
 794 687 794 687 799 682 c 2,56,-1
 1066 415 l 2,57,58
 1071 410 1071 410 1071 402.5 c 128,-1,59
 1071 395 1071 395 1066 389 c 1,60,-1
 1066 389 l 1,39,-1
EndSplineSet
EndChar

StartChar: uniE90B
Encoding: 59659 59659 15
Width: 878
GlyphClass: 1
Flags: W
LayerCount: 2
Fore
SplineSet
135 143 m 1,0,-1
 267 143 l 1,1,-1
 267 539 l 1,2,-1
 135 539 l 1,3,-1
 135 143 l 1,4,-1
 135 143 l 1,0,-1
276 662 m 1,5,6
 276 691 276 691 256 710.5 c 128,-1,7
 236 730 236 730 202 730 c 256,8,9
 168 730 168 730 147.5 710.5 c 128,-1,10
 127 691 127 691 127 662 c 256,11,12
 127 633 127 633 147 613 c 128,-1,13
 167 593 167 593 201 593 c 1,14,-1
 201 593 l 1,15,16
 236 593 236 593 256 613 c 128,-1,17
 276 633 276 633 276 662 c 1,18,-1
 276 662 l 1,5,6
610 143 m 1,19,-1
 742 143 l 1,20,-1
 742 370 l 2,21,22
 742 462 742 462 698.5 505.5 c 128,-1,23
 655 549 655 549 590 549 c 0,24,25
 537 549 537 549 510.5 525.5 c 128,-1,26
 484 502 484 502 471 482 c 1,27,-1
 472 482 l 1,28,-1
 472 539 l 1,29,-1
 340 539 l 1,30,31
 340 539 340 539 340.5 475.5 c 128,-1,32
 341 412 341 412 340 143 c 1,33,-1
 340 143 l 1,34,-1
 472 143 l 1,35,-1
 472 365 l 2,36,37
 472 373 472 373 472.5 381.5 c 128,-1,38
 473 390 473 390 476 397 c 0,39,40
 483 414 483 414 500 429.5 c 128,-1,41
 517 445 517 445 544 445 c 0,42,43
 580 445 580 445 595 420 c 128,-1,44
 610 395 610 395 610 355 c 2,45,-1
 610 143 l 1,46,-1
 610 143 l 1,19,-1
878 713 m 2,47,-1
 878 165 l 2,48,49
 878 96 878 96 829.5 48 c 128,-1,50
 781 0 781 0 713 0 c 2,51,-1
 165 0 l 2,52,53
 96 0 96 0 48 48 c 128,-1,54
 0 96 0 96 0 165 c 2,55,-1
 0 713 l 2,56,57
 0 781 0 781 48 829.5 c 128,-1,58
 96 878 96 878 165 878 c 2,59,-1
 713 878 l 2,60,61
 781 878 781 878 829.5 829.5 c 128,-1,62
 878 781 878 781 878 713 c 2,47,-1
EndSplineSet
EndChar

StartChar: uniE90C
Encoding: 59660 59660 16
Width: 1024
GlyphClass: 1
Flags: W
LayerCount: 2
Fore
SplineSet
897 187 m 1,0,-1
 527 -21 l 1,1,-1
 527 141 l 1,2,-1
 757 267 l 1,3,-1
 897 187 l 1,0,-1
922 210 m 1,4,-1
 922 645 l 1,5,-1
 787 567 l 1,6,-1
 787 287 l 1,7,-1
 922 210 l 1,4,-1
125 187 m 1,8,-1
 495 -21 l 1,9,-1
 495 141 l 1,10,-1
 264 267 l 1,11,-1
 125 187 l 1,8,-1
100 210 m 1,12,-1
 100 645 l 1,13,-1
 235 567 l 1,14,-1
 235 287 l 1,15,-1
 100 210 l 1,12,-1
115 673 m 1,16,-1
 495 887 l 1,17,-1
 495 730 l 1,18,-1
 250 596 l 1,19,-1
 115 673 l 1,16,-1
906 673 m 1,20,-1
 527 887 l 1,21,-1
 527 730 l 1,22,-1
 772 596 l 1,23,-1
 906 673 l 1,20,-1
495 178 m 1,24,-1
 267 302 l 1,25,-1
 267 549 l 1,26,-1
 495 418 l 1,27,-1
 495 178 l 1,24,-1
527 178 m 1,28,-1
 754 302 l 1,29,-1
 754 549 l 1,30,-1
 527 418 l 1,31,-1
 527 178 l 1,28,-1
283 577 m 1,32,-1
 511 702 l 1,33,-1
 739 577 l 1,34,-1
 511 446 l 1,35,-1
 283 577 l 1,32,-1
EndSplineSet
EndChar

StartChar: uniE90D
Encoding: 59661 59661 17
Width: 1024
GlyphClass: 1
Flags: W
LayerCount: 2
Fore
SplineSet
316 281 m 1,0,-1
 256 341 l 1,1,-1
 512 597 l 1,2,-1
 768 341 l 1,3,-1
 708 281 l 1,4,-1
 512 477 l 1,5,-1
 316 281 l 1,0,-1
EndSplineSet
EndChar

StartChar: uniE90F
Encoding: 59663 59663 18
Width: 878
GlyphClass: 1
Flags: W
LayerCount: 2
Fore
SplineSet
333 203 m 1,0,1
 333 180 333 180 315.5 173 c 128,-1,2
 298 166 298 166 279 166 c 0,3,4
 261 166 261 166 239.5 172 c 128,-1,5
 218 178 218 178 218 202 c 0,6,7
 218 225 218 225 236.5 231.5 c 128,-1,8
 255 238 255 238 274 238 c 0,9,10
 292 238 292 238 312.5 232.5 c 128,-1,11
 333 227 333 227 333 203 c 1,12,-1
 333 203 l 1,0,1
312 470 m 1,13,14
 312 448 312 448 302.5 434.5 c 128,-1,15
 293 421 293 421 270 421 c 0,16,17
 246 421 246 421 236 434 c 128,-1,18
 226 447 226 447 226 469 c 256,19,20
 226 491 226 491 235.5 506 c 128,-1,21
 245 521 245 521 270 521 c 0,22,23
 292 521 292 521 302 505.5 c 128,-1,24
 312 490 312 490 312 470 c 1,25,-1
 312 470 l 1,13,14
407 513 m 1,26,-1
 407 584 l 1,27,28
 388 577 388 577 368.5 572 c 128,-1,29
 349 567 349 567 330 567 c 1,30,31
 316 576 316 576 300 580 c 128,-1,32
 284 584 284 584 267 584 c 0,33,34
 218 584 218 584 184 551.5 c 128,-1,35
 150 519 150 519 150 470 c 0,36,37
 150 443 150 443 166.5 412.5 c 128,-1,38
 183 382 183 382 209 373 c 1,39,-1
 209 371 l 1,40,41
 195 365 195 365 191 351 c 128,-1,42
 187 337 187 337 187 323 c 256,43,44
 187 309 187 309 192.5 297.5 c 128,-1,45
 198 286 198 286 211 279 c 1,46,-1
 211 277 l 1,47,48
 182 268 182 268 164 248.5 c 128,-1,49
 146 229 146 229 146 198 c 0,50,51
 146 143 146 143 188.5 124 c 128,-1,52
 231 105 231 105 276 105 c 0,53,54
 331 105 331 105 367.5 128.5 c 128,-1,55
 404 152 404 152 404 212 c 0,56,57
 404 255 404 255 372 271.5 c 128,-1,58
 340 288 340 288 305 295 c 0,59,60
 293 297 293 297 277 305.5 c 128,-1,61
 261 314 261 314 261 329 c 0,62,63
 261 343 261 343 268.5 350 c 128,-1,64
 276 357 276 357 289 359 c 0,65,66
 333 367 333 367 359 398.5 c 128,-1,67
 385 430 385 430 385 475 c 0,68,69
 385 483 385 483 383 490.5 c 128,-1,70
 381 498 381 498 379 505 c 1,71,72
 386 507 386 507 393 508.5 c 128,-1,73
 400 510 400 510 407 513 c 1,74,-1
 407 513 l 1,26,-1
441 273 m 1,75,-1
 519 273 l 1,76,77
 518 285 518 285 518 296.5 c 128,-1,78
 518 308 518 308 518 320 c 2,79,-1
 518 541 l 2,80,81
 518 551 518 551 518 561 c 128,-1,82
 518 571 518 571 519 581 c 1,83,-1
 441 581 l 1,84,85
 442 571 442 571 442 560.5 c 128,-1,86
 442 550 442 550 442 540 c 2,87,-1
 442 316 l 2,88,89
 442 305 442 305 442 294.5 c 128,-1,90
 442 284 442 284 441 273 c 1,91,-1
 441 273 l 1,75,-1
731 282 m 1,92,-1
 731 351 l 1,93,94
 723 345 723 345 713 342 c 128,-1,95
 703 339 703 339 693 339 c 0,96,97
 673 339 673 339 667.5 354.5 c 128,-1,98
 662 370 662 370 662 386 c 2,99,-1
 662 515 l 1,100,-1
 692 515 l 2,101,102
 700 515 700 515 707.5 514.5 c 128,-1,103
 715 514 715 514 722 514 c 1,104,-1
 722 581 l 1,105,-1
 662 581 l 1,106,107
 662 595 662 595 662 609.5 c 128,-1,108
 662 624 662 624 664 639 c 1,109,-1
 584 639 l 1,110,111
 585 631 585 631 585.5 623.5 c 128,-1,112
 586 616 586 616 586 607 c 2,113,-1
 586 581 l 1,114,-1
 552 581 l 1,115,-1
 552 514 l 1,116,117
 557 514 557 514 562.5 514.5 c 128,-1,118
 568 515 568 515 573 515 c 0,119,120
 576 515 576 515 579.5 515 c 128,-1,121
 583 515 583 515 586 515 c 1,122,-1
 586 514 l 1,123,-1
 585 514 l 1,124,-1
 585 390 l 2,125,126
 585 343 585 343 599 306 c 128,-1,127
 613 269 613 269 670 269 c 0,128,129
 686 269 686 269 701.5 272 c 128,-1,130
 717 275 717 275 731 282 c 1,131,-1
 731 282 l 1,92,-1
528 686 m 256,132,133
 528 706 528 706 514.5 722 c 128,-1,134
 501 738 501 738 480 738 c 256,135,136
 459 738 459 738 445 722 c 128,-1,137
 431 706 431 706 431 686 c 256,138,139
 431 666 431 666 445 650.5 c 128,-1,140
 459 635 459 635 480 635 c 256,141,142
 501 635 501 635 514.5 650.5 c 128,-1,143
 528 666 528 666 528 686 c 256,132,133
878 713 m 2,144,-1
 878 165 l 2,145,146
 878 96 878 96 829.5 48 c 128,-1,147
 781 0 781 0 713 0 c 2,148,-1
 165 0 l 2,149,150
 96 0 96 0 48 48 c 128,-1,151
 0 96 0 96 0 165 c 2,152,-1
 0 713 l 2,153,154
 0 781 0 781 48 829.5 c 128,-1,155
 96 878 96 878 165 878 c 2,156,-1
 713 878 l 2,157,158
 781 878 781 878 829.5 829.5 c 128,-1,159
 878 781 878 781 878 713 c 2,144,-1
EndSplineSet
EndChar

StartChar: uniE911
Encoding: 59665 59665 19
Width: 951
GlyphClass: 1
Flags: W
LayerCount: 2
Fore
SplineSet
366 878 m 1,0,1
 335 878 335 878 314 856.5 c 128,-1,2
 293 835 293 835 293 805 c 2,3,-1
 293 293 l 1,4,-1
 206 408 l 2,5,6
 196 422 196 422 179.5 430.5 c 128,-1,7
 163 439 163 439 145 439 c 0,8,9
 115 439 115 439 94 417 c 128,-1,10
 73 395 73 395 73 366 c 0,11,12
 73 354 73 354 77 342.5 c 128,-1,13
 81 331 81 331 88 322 c 2,14,-1
 307 29 l 2,15,16
 318 15 318 15 333.5 7.5 c 128,-1,17
 349 0 349 0 366 0 c 2,18,-1
 776 0 l 2,19,20
 788 0 788 0 798 7.5 c 128,-1,21
 808 15 808 15 811 27 c 2,22,-1
 864 238 l 2,23,24
 871 265 871 265 874.5 293 c 128,-1,25
 878 321 878 321 878 349 c 2,26,-1
 878 473 l 2,27,28
 878 495 878 495 862 512.5 c 128,-1,29
 846 530 846 530 823 530 c 256,30,31
 800 530 800 530 784 514 c 128,-1,32
 768 498 768 498 768 475 c 1,33,-1
 750 475 l 1,34,-1
 750 510 l 2,35,36
 750 537 750 537 731.5 556.5 c 128,-1,37
 713 576 713 576 686 576 c 256,38,39
 659 576 659 576 640.5 557.5 c 128,-1,40
 622 539 622 539 622 512 c 2,41,-1
 622 475 l 1,42,-1
 603 475 l 1,43,-1
 603 527 l 2,44,45
 603 558 603 558 582.5 580.5 c 128,-1,46
 562 603 562 603 530 603 c 0,47,48
 500 603 500 603 478.5 582 c 128,-1,49
 457 561 457 561 457 530 c 2,50,-1
 457 475 l 1,51,-1
 439 475 l 1,52,-1
 439 801 l 2,53,54
 439 832 439 832 418 855 c 128,-1,55
 397 878 397 878 366 878 c 1,56,-1
 366 878 l 1,0,1
366 951 m 1,57,58
 427 951 427 951 469.5 906.5 c 128,-1,59
 512 862 512 862 512 801 c 2,60,-1
 512 675 l 1,61,62
 517 676 517 676 521.5 676.5 c 128,-1,63
 526 677 526 677 530 677 c 0,64,65
 558 677 558 677 583.5 666.5 c 128,-1,66
 609 656 609 656 629 637 c 1,67,68
 642 643 642 643 656.5 646 c 128,-1,69
 671 649 671 649 686 649 c 0,70,71
 717 649 717 649 744.5 636 c 128,-1,72
 772 623 772 623 791 599 c 1,73,74
 799 602 799 602 807 602.5 c 128,-1,75
 815 603 815 603 823 603 c 0,76,77
 877 603 877 603 914 564.5 c 128,-1,78
 951 526 951 526 951 473 c 2,79,-1
 951 349 l 2,80,81
 951 316 951 316 947 284 c 128,-1,82
 943 252 943 252 935 220 c 2,83,-1
 882 10 l 2,84,85
 873 -27 873 -27 843.5 -50 c 128,-1,86
 814 -73 814 -73 776 -73 c 2,87,-1
 366 -73 l 2,88,89
 331 -73 331 -73 300 -57.5 c 128,-1,90
 269 -42 269 -42 249 -15 c 2,91,-1
 29 278 l 2,92,93
 15 297 15 297 7.5 319.5 c 128,-1,94
 0 342 0 342 0 366 c 0,95,96
 0 426 0 426 42.5 469 c 128,-1,97
 85 512 85 512 145 512 c 0,98,99
 165 512 165 512 184 507 c 128,-1,100
 203 502 203 502 219 492 c 1,101,-1
 219 805 l 2,102,103
 219 865 219 865 262 908 c 128,-1,104
 305 951 305 951 366 951 c 1,105,-1
 366 951 l 1,57,58
439 146 m 1,106,-1
 439 366 l 1,107,-1
 421 366 l 1,108,-1
 421 146 l 1,109,-1
 439 146 l 1,106,-1
585 146 m 1,110,-1
 585 366 l 1,111,-1
 567 366 l 1,112,-1
 567 146 l 1,113,-1
 585 146 l 1,110,-1
731 146 m 1,114,-1
 731 366 l 1,115,-1
 713 366 l 1,116,-1
 713 146 l 1,117,-1
 731 146 l 1,118,-1
 731 146 l 1,114,-1
EndSplineSet
EndChar

StartChar: uniE912
Encoding: 59666 59666 20
Width: 1170
GlyphClass: 1
Flags: W
LayerCount: 2
Fore
SplineSet
146 366 m 1,0,-1
 1134 366 l 2,1,2
 1149 366 1149 366 1159.5 355 c 128,-1,3
 1170 344 1170 344 1170 329 c 2,4,-1
 1170 73 l 1,5,-1
 1024 73 l 1,6,-1
 1024 219 l 1,7,-1
 146 219 l 1,8,-1
 146 73 l 1,9,-1
 0 73 l 1,10,-1
 0 768 l 2,11,12
 0 783 0 783 11 794 c 128,-1,13
 22 805 22 805 37 805 c 2,14,-1
 110 805 l 2,15,16
 125 805 125 805 135.5 794 c 128,-1,17
 146 783 146 783 146 768 c 2,18,-1
 146 366 l 1,19,-1
 146 366 l 1,0,-1
475 549 m 0,20,21
 475 609 475 609 432.5 652 c 128,-1,22
 390 695 390 695 329 695 c 0,23,24
 269 695 269 695 226 652 c 128,-1,25
 183 609 183 609 183 549 c 0,26,27
 183 488 183 488 226 445 c 128,-1,28
 269 402 269 402 329 402 c 0,29,30
 390 402 390 402 432.5 445 c 128,-1,31
 475 488 475 488 475 549 c 0,20,21
1170 402 m 1,32,-1
 1170 439 l 2,33,34
 1170 484 1170 484 1153 524 c 256,35,36
 1136 564 1136 564 1106 594 c 128,-1,37
 1076 624 1076 624 1036 641 c 256,38,39
 996 658 996 658 951 658 c 2,40,-1
 549 658 l 2,41,42
 534 658 534 658 523 647.5 c 128,-1,43
 512 637 512 637 512 622 c 2,44,-1
 512 402 l 1,45,-1
 1170 402 l 1,32,-1
EndSplineSet
EndChar

StartChar: uniE913
Encoding: 59667 59667 21
Width: 953
GlyphClass: 1
Flags: W
LayerCount: 2
Fore
SplineSet
937 678 m 1,0,1
 947 662 947 662 950 643 c 128,-1,2
 953 624 953 624 947 604 c 2,3,-1
 790 86 l 2,4,5
 779 50 779 50 746 25 c 128,-1,6
 713 0 713 0 676 0 c 2,7,-1
 149 0 l 2,8,9
 105 0 105 0 64 30.5 c 128,-1,10
 23 61 23 61 7 106 c 0,11,12
 0 125 0 125 0 143.5 c 128,-1,13
 0 162 0 162 6 178 c 0,14,15
 7 187 7 187 8 196 c 128,-1,16
 9 205 9 205 10 215 c 0,17,18
 10 222 10 222 7.5 227.5 c 128,-1,19
 5 233 5 233 6 238 c 0,20,21
 8 249 8 249 15.5 257.5 c 128,-1,22
 23 266 23 266 30 277 c 0,23,24
 43 299 43 299 55.5 329 c 128,-1,25
 68 359 68 359 73 382 c 0,26,27
 75 390 75 390 72.5 399 c 128,-1,28
 70 408 70 408 73 415 c 0,29,30
 75 423 75 423 81.5 429.5 c 128,-1,31
 88 436 88 436 92 444 c 0,32,33
 104 464 104 464 116 496 c 128,-1,34
 128 528 128 528 130 548 c 0,35,36
 131 557 131 557 129 566 c 128,-1,37
 127 575 127 575 129 582 c 0,38,39
 132 592 132 592 140 598 c 128,-1,40
 148 604 148 604 154 613 c 0,41,42
 165 627 165 627 178.5 660 c 128,-1,43
 192 693 192 693 194 716 c 0,44,45
 195 723 195 723 192.5 730.5 c 128,-1,46
 190 738 190 738 191 746 c 0,47,48
 193 754 193 754 201.5 762.5 c 128,-1,49
 210 771 210 771 217 781 c 0,50,51
 235 808 235 808 249 849 c 128,-1,52
 263 890 263 890 318 874 c 1,53,-1
 317 873 l 1,54,55
 324 874 324 874 331.5 876 c 128,-1,56
 339 878 339 878 346 878 c 2,57,-1
 781 878 l 2,58,59
 801 878 801 878 818.5 869.5 c 128,-1,60
 836 861 836 861 846 846 c 0,61,62
 857 830 857 830 860 811 c 128,-1,63
 863 792 863 792 857 771 c 2,64,-1
 700 254 l 2,65,66
 680 188 680 188 660 167 c 128,-1,67
 640 146 640 146 586 146 c 2,68,-1
 89 146 l 2,69,70
 84 146 84 146 77.5 144.5 c 128,-1,71
 71 143 71 143 67 138 c 0,72,73
 64 133 64 133 63.5 128 c 128,-1,74
 63 123 63 123 67 113 c 0,75,76
 75 88 75 88 100.5 80.5 c 128,-1,77
 126 73 126 73 149 73 c 2,78,-1
 677 73 l 2,79,80
 692 73 692 73 708 81.5 c 128,-1,81
 724 90 724 90 729 106 c 2,82,-1
 900 670 l 2,83,84
 903 678 903 678 903 686.5 c 128,-1,85
 903 695 903 695 903 702 c 1,86,87
 913 698 913 698 921.5 692 c 128,-1,88
 930 686 930 686 937 678 c 1,89,-1
 937 678 l 1,0,1
329 677 m 2,90,91
 326 669 326 669 329.5 663.5 c 128,-1,92
 333 658 333 658 341 658 c 2,93,-1
 689 658 l 2,94,95
 696 658 696 658 703 663.5 c 128,-1,96
 710 669 710 669 713 677 c 2,97,-1
 725 713 l 2,98,99
 727 721 727 721 723.5 726 c 128,-1,100
 720 731 720 731 712 731 c 2,101,-1
 365 731 l 2,102,103
 357 731 357 731 350 726 c 128,-1,104
 343 721 343 721 341 713 c 2,105,-1
 329 677 l 2,90,91
281 530 m 2,106,107
 279 523 279 523 282.5 517.5 c 128,-1,108
 286 512 286 512 294 512 c 2,109,-1
 641 512 l 2,110,111
 648 512 648 512 655.5 517.5 c 128,-1,112
 663 523 663 523 665 530 c 2,113,-1
 677 567 l 2,114,115
 680 575 680 575 676 580 c 128,-1,116
 672 585 672 585 665 585 c 2,117,-1
 317 585 l 2,118,119
 310 585 310 585 303 580 c 128,-1,120
 296 575 296 575 293 567 c 2,121,-1
 281 530 l 2,106,107
EndSplineSet
EndChar

StartChar: uniE914
Encoding: 59668 59668 22
Width: 1024
GlyphClass: 1
Flags: W
LayerCount: 2
Fore
SplineSet
198 641 m 1,0,1
 232 633 232 633 270 626 c 0,2,3
 308 620 308 620 351 615.5 c 128,-1,4
 394 611 394 611 441 609 c 256,5,6
 488 607 488 607 540 607 c 0,7,8
 593 607 593 607 640 609 c 256,9,10
 687 611 687 611 729.5 615.5 c 128,-1,11
 772 620 772 620 810 626 c 0,12,13
 848 633 848 633 881 641 c 0,14,15
 953 658 953 658 987.5 679 c 128,-1,16
 1022 700 1022 700 1022 721 c 0,17,18
 1022 737 1022 737 1007.5 751 c 128,-1,19
 993 765 993 765 965 776 c 1,20,21
 971 772 971 772 975.5 765.5 c 128,-1,22
 980 759 980 759 980 751 c 0,23,24
 980 729 980 729 947.5 711.5 c 128,-1,25
 915 694 915 694 850 679 c 0,26,27
 790 666 790 666 713 657.5 c 128,-1,28
 636 649 636 649 543 649 c 0,29,30
 452 649 452 649 374 657.5 c 128,-1,31
 296 666 296 666 238 678 c 0,32,33
 176 694 176 694 143.5 711 c 128,-1,34
 111 728 111 728 111 750 c 0,35,36
 111 759 111 759 116 767 c 128,-1,37
 121 775 121 775 134 784 c 1,38,39
 95 769 95 769 74 755 c 128,-1,40
 53 741 53 741 53 721 c 0,41,42
 56 700 56 700 91.5 679 c 128,-1,43
 127 658 127 658 198 641 c 1,44,-1
 198 641 l 1,0,1
398 733 m 1,45,46
 471 740 471 740 511 773.5 c 128,-1,47
 551 807 551 807 637 815 c 0,48,49
 679 818 679 818 704 810.5 c 128,-1,50
 729 803 729 803 732 788 c 0,51,52
 734 774 734 774 716.5 765.5 c 128,-1,53
 699 757 699 757 674 755 c 0,54,55
 639 751 639 751 623 761 c 128,-1,56
 607 771 607 771 604 783 c 1,57,58
 578 780 578 780 571 771 c 128,-1,59
 564 762 564 762 566 754 c 0,60,61
 569 739 569 739 599 727.5 c 128,-1,62
 629 716 629 716 683 721 c 0,63,64
 744 726 744 726 767 747 c 128,-1,65
 790 768 790 768 785 792 c 0,66,67
 778 823 778 823 732 844.5 c 128,-1,68
 686 866 686 866 602 858 c 0,69,70
 495 848 495 848 465 812.5 c 128,-1,71
 435 777 435 777 362 771 c 0,72,73
 332 768 332 768 315.5 774 c 128,-1,74
 299 780 299 780 296 792 c 0,75,76
 294 804 294 804 306.5 810 c 128,-1,77
 319 816 319 816 336 817 c 0,78,79
 352 819 352 819 369 816.5 c 128,-1,80
 386 814 386 814 396 809 c 1,81,82
 402 812 402 812 404.5 815.5 c 128,-1,83
 407 819 407 819 407 823 c 0,84,85
 403 835 403 835 383.5 839.5 c 128,-1,86
 364 844 364 844 336 842 c 0,87,88
 281 837 281 837 272.5 818.5 c 128,-1,89
 264 800 264 800 266 789 c 0,90,91
 271 761 271 761 308.5 745 c 128,-1,92
 346 729 346 729 398 733 c 1,93,-1
 398 733 l 1,45,46
885 570 m 1,94,95
 852 562 852 562 814 555 c 0,96,97
 775 549 775 549 732.5 544.5 c 128,-1,98
 690 540 690 540 643 537 c 0,99,100
 595 535 595 535 544 535 c 0,101,102
 491 535 491 535 443 538 c 0,103,104
 395 540 395 540 352 544.5 c 128,-1,105
 309 549 309 549 271 556 c 0,106,107
 232 562 232 562 199 569 c 0,108,109
 139 585 139 585 105.5 601.5 c 128,-1,110
 72 618 72 618 61 636 c 1,111,112
 67 596 67 596 76.5 558 c 128,-1,113
 86 520 86 520 99 484 c 1,114,115
 84 475 84 475 70 462.5 c 128,-1,116
 56 450 56 450 44 434 c 0,117,118
 23 410 23 410 11.5 378.5 c 128,-1,119
 0 347 0 347 0 312 c 0,120,121
 0 309 0 309 0 306.5 c 128,-1,122
 0 304 0 304 0 302 c 1,123,-1
 0 302 l 1,124,125
 2 268 2 268 18.5 239 c 128,-1,126
 35 210 35 210 60 191 c 1,127,-1
 61 190 l 1,128,129
 88 169 88 169 118.5 162 c 128,-1,130
 149 155 149 155 183 161 c 0,131,132
 197 164 197 164 211 169.5 c 128,-1,133
 225 175 225 175 239 179 c 1,134,135
 210 179 210 179 185.5 188 c 128,-1,136
 161 197 161 197 138 216 c 0,137,138
 112 234 112 234 95.5 260.5 c 128,-1,139
 79 287 79 287 74 319 c 1,140,-1
 74 320 l 1,141,142
 68 350 68 350 74 377.5 c 128,-1,143
 80 405 80 405 97 430 c 0,144,145
 101 434 101 434 105 438.5 c 128,-1,146
 109 443 109 443 113 447 c 1,147,148
 123 423 123 423 133.5 400.5 c 128,-1,149
 144 378 144 378 155 356 c 0,150,151
 181 317 181 317 207 281.5 c 128,-1,152
 233 246 233 246 259 209 c 0,153,154
 270 187 270 187 277.5 165.5 c 128,-1,155
 285 144 285 144 291 122 c 1,156,157
 308 99 308 99 332 82.5 c 128,-1,158
 356 66 356 66 385 59 c 1,159,-1
 386 58 l 1,160,161
 423 46 423 46 461 40 c 128,-1,162
 499 34 499 34 538 37 c 2,163,-1
 544 37 l 2,164,165
 548 36 548 36 553 36 c 128,-1,166
 558 36 558 36 563 36 c 0,167,168
 600 36 600 36 635.5 42 c 128,-1,169
 671 48 671 48 705 60 c 1,170,-1
 701 59 l 1,171,172
 730 67 730 67 753 83.5 c 128,-1,173
 776 100 776 100 793 122 c 1,174,-1
 794 122 l 1,175,-1
 797 122 l 1,176,177
 801 144 801 144 808 165.5 c 128,-1,178
 815 187 815 187 825 209 c 1,179,180
 851 246 851 246 877 281.5 c 128,-1,181
 903 317 903 317 928 356 c 0,182,183
 962 417 962 417 986.5 486.5 c 128,-1,184
 1011 556 1011 556 1023 630 c 2,185,-1
 1024 635 l 1,186,187
 1010 616 1010 616 976.5 599.5 c 128,-1,188
 943 583 943 583 885 570 c 1,189,-1
 885 570 l 1,94,95
EndSplineSet
EndChar

StartChar: uniE915
Encoding: 59669 59669 23
Width: 1024
GlyphClass: 1
Flags: W
LayerCount: 2
Fore
SplineSet
294 960 m 1,0,-1
 242 841 l 1,1,-1
 165 841 l 1,2,-1
 165 733 l 1,3,-1
 195 733 l 1,4,-1
 225 542 l 1,5,-1
 178 542 l 1,6,-1
 240 191 l 1,7,-1
 280 191 l 1,8,-1
 321 -64 l 1,9,-1
 701 -64 l 1,10,-1
 704 -47 l 1,11,-1
 741 191 l 1,12,-1
 779 191 l 1,13,-1
 841 542 l 1,14,-1
 796 542 l 1,15,-1
 826 733 l 1,16,-1
 859 733 l 1,17,-1
 859 841 l 1,18,-1
 777 841 l 1,19,-1
 725 960 l 1,20,-1
 294 960 l 1,0,-1
317 926 m 1,21,-1
 703 926 l 1,22,-1
 736 850 l 1,23,-1
 284 850 l 1,24,-1
 317 926 l 1,21,-1
200 806 m 1,25,-1
 824 806 l 1,26,-1
 824 767 l 1,27,-1
 200 767 l 1,28,-1
 200 806 l 1,25,-1
219 508 m 1,29,-1
 801 508 l 1,30,-1
 750 225 l 1,31,-1
 509 228 l 1,32,-1
 269 225 l 1,33,-1
 219 508 l 1,29,-1
EndSplineSet
EndChar

StartChar: uniE916
Encoding: 59670 59670 24
Width: 1024
GlyphClass: 1
Flags: W
LayerCount: 2
Fore
SplineSet
522 521 m 1,0,-1
 522 346 l 1,1,-1
 813 346 l 1,2,3
 808 317 808 317 791 279 c 0,4,5
 773 241 773 241 739 207 c 128,-1,6
 705 173 705 173 651 149 c 0,7,8
 598 125 598 125 522 125 c 0,9,10
 457 125 457 125 399 150 c 0,11,12
 341 176 341 176 298 219.5 c 128,-1,13
 255 263 255 263 230 322 c 256,14,15
 205 381 205 381 205 448 c 256,16,17
 205 515 205 515 230 574 c 256,18,19
 255 633 255 633 298 676.5 c 128,-1,20
 341 720 341 720 399 746 c 0,21,22
 457 771 457 771 522 771 c 0,23,24
 597 771 597 771 647.5 745.5 c 128,-1,25
 698 720 698 720 726 692 c 1,26,-1
 865 826 l 1,27,28
 832 857 832 857 793 882 c 0,29,30
 755 907 755 907 712 924.5 c 128,-1,31
 669 942 669 942 622 951 c 0,32,33
 574 960 574 960 522 960 c 0,34,35
 416 960 416 960 323 920 c 256,36,37
 230 880 230 880 160.5 810.5 c 128,-1,38
 91 741 91 741 50 647 c 0,39,40
 10 554 10 554 10 448 c 256,41,42
 10 342 10 342 50 249 c 0,43,44
 91 155 91 155 160.5 85.5 c 128,-1,45
 230 16 230 16 323 -24 c 256,46,47
 416 -64 416 -64 522 -64 c 0,48,49
 633 -64 633 -64 724 -27 c 0,50,51
 814 10 814 10 878.5 76.5 c 128,-1,52
 943 143 943 143 979 235 c 0,53,54
 1014 327 1014 327 1014 436 c 0,55,56
 1014 462 1014 462 1011.5 482 c 128,-1,57
 1009 502 1009 502 1006 521 c 1,58,-1
 522 521 l 1,0,-1
EndSplineSet
EndChar

StartChar: uniE917
Encoding: 59671 59671 25
Width: 1024
GlyphClass: 1
Flags: W
LayerCount: 2
Fore
SplineSet
81 702 m 1,0,1
 90 697 90 697 149 665 c 0,2,3
 209 633 209 633 277.5 596.5 c 128,-1,4
 346 560 346 560 403 529 c 256,5,6
 460 498 460 498 465 496 c 0,7,8
 474 491 474 491 486 488.5 c 128,-1,9
 498 486 498 486 511 486 c 256,10,11
 524 486 524 486 536 488.5 c 128,-1,12
 548 491 548 491 557 496 c 0,13,14
 562 498 562 498 619 529 c 256,15,16
 676 560 676 560 744.5 596.5 c 128,-1,17
 813 633 813 633 873 665 c 0,18,19
 932 697 932 697 941 702 c 0,20,21
 960 712 960 712 969.5 740 c 128,-1,22
 979 768 979 768 944 768 c 2,23,-1
 78 768 l 2,24,25
 43 768 43 768 52.5 740 c 128,-1,26
 62 712 62 712 81 702 c 1,27,-1
 81 702 l 1,0,1
953 589 m 1,28,29
 942 584 942 584 882 552 c 0,30,31
 821 521 821 521 751 484.5 c 128,-1,32
 681 448 681 448 623 417 c 0,33,34
 564 387 564 387 557 383 c 0,35,36
 544 376 544 376 534 374.5 c 128,-1,37
 524 373 524 373 511 373 c 256,38,39
 498 373 498 373 488 374.5 c 128,-1,40
 478 376 478 376 465 383 c 0,41,42
 458 387 458 387 400 417 c 0,43,44
 341 448 341 448 271.5 484.5 c 128,-1,45
 202 521 202 521 142 552 c 0,46,47
 82 584 82 584 71 589 c 0,48,49
 56 597 56 597 53.5 591 c 128,-1,50
 51 585 51 585 51 578 c 0,51,52
 51 575 51 575 51 516 c 256,53,54
 51 457 51 457 51 388 c 128,-1,55
 51 319 51 319 51 262 c 256,56,57
 51 205 51 205 51 205 c 2,58,59
 51 189 51 189 68.5 171.5 c 128,-1,60
 86 154 86 154 102 154 c 2,61,-1
 922 154 l 2,62,63
 938 154 938 154 955.5 171.5 c 128,-1,64
 973 189 973 189 973 205 c 2,65,66
 973 205 973 205 973 262 c 256,67,68
 973 319 973 319 973 388 c 128,-1,69
 973 457 973 457 973 516 c 256,70,71
 973 575 973 575 973 578 c 0,72,73
 973 585 973 585 970.5 591 c 128,-1,74
 968 597 968 597 953 589 c 1,75,-1
 953 589 l 1,28,29
EndSplineSet
EndChar

StartChar: uniE918
Encoding: 59672 59672 26
Width: 1024
GlyphClass: 1
Flags: W
LayerCount: 2
Fore
SplineSet
128 601 m 1,0,-1
 488 349 l 2,1,2
 498 341 498 341 511.5 341 c 128,-1,3
 525 341 525 341 536 349 c 2,4,-1
 896 601 l 1,5,-1
 896 171 l 2,6,7
 896 162 896 162 892.5 154 c 128,-1,8
 889 146 889 146 883 141 c 0,9,10
 877 135 877 135 869.5 131.5 c 128,-1,11
 862 128 862 128 853 128 c 2,12,-1
 171 128 l 2,13,14
 162 128 162 128 154 131.5 c 128,-1,15
 146 135 146 135 141 141 c 0,16,17
 135 147 135 147 131.5 154.5 c 128,-1,18
 128 162 128 162 128 171 c 2,19,-1
 128 601 l 1,0,-1
43 683 m 1,20,21
 43 683 43 683 43 682.5 c 128,-1,22
 43 682 43 682 43 682 c 1,23,-1
 43 171 l 2,24,25
 43 144 43 144 53 121 c 128,-1,26
 63 98 63 98 80 80 c 0,27,28
 97 63 97 63 120.5 53 c 128,-1,29
 144 43 144 43 171 43 c 2,30,-1
 853 43 l 2,31,32
 880 43 880 43 903 53 c 128,-1,33
 926 63 926 63 944 80 c 0,34,35
 961 97 961 97 971 120.5 c 128,-1,36
 981 144 981 144 981 171 c 2,37,-1
 981 682 l 1,38,39
 981 682 981 682 981 682.5 c 128,-1,40
 981 683 981 683 981 683 c 2,41,42
 981 710 981 710 971 733 c 128,-1,43
 961 756 961 756 944 773 c 0,44,45
 926 790 926 790 903 800.5 c 128,-1,46
 880 811 880 811 853 811 c 2,47,-1
 171 811 l 2,48,49
 144 811 144 811 121 800.5 c 128,-1,50
 98 790 98 790 80 773 c 0,51,52
 63 756 63 756 53 733 c 128,-1,53
 43 710 43 710 43 683 c 1,54,-1
 43 683 l 1,20,21
891 702 m 1,55,-1
 512 436 l 1,56,-1
 133 702 l 2,57,58
 134 705 134 705 136 707.5 c 128,-1,59
 138 710 138 710 141 713 c 0,60,61
 146 719 146 719 154 722 c 128,-1,62
 162 725 162 725 171 725 c 2,63,-1
 853 725 l 2,64,65
 862 725 862 725 870 722 c 128,-1,66
 878 719 878 719 883 713 c 0,67,68
 886 710 886 710 888 707.5 c 128,-1,69
 890 705 890 705 891 702 c 1,70,-1
 891 702 l 1,55,-1
EndSplineSet
EndChar

StartChar: uniE919
Encoding: 59673 59673 27
Width: 1024
GlyphClass: 1
Flags: W
LayerCount: 2
Fore
SplineSet
951 91 m 1,0,-1
 951 530 l 1,1,2
 942 520 942 520 932 510.5 c 128,-1,3
 922 501 922 501 911 493 c 0,4,5
 850 445 850 445 789 397 c 128,-1,6
 728 349 728 349 668 299 c 0,7,8
 636 272 636 272 596.5 245.5 c 128,-1,9
 557 219 557 219 513 219 c 2,10,-1
 511 219 l 2,11,12
 467 219 467 219 427.5 245.5 c 128,-1,13
 388 272 388 272 356 299 c 0,14,15
 296 349 296 349 235 397 c 128,-1,16
 174 445 174 445 113 493 c 0,17,18
 102 501 102 501 92 510.5 c 128,-1,19
 82 520 82 520 73 530 c 1,20,-1
 73 91 l 2,21,22
 73 84 73 84 78.5 78.5 c 128,-1,23
 84 73 84 73 91 73 c 2,24,-1
 933 73 l 2,25,26
 940 73 940 73 945.5 78.5 c 128,-1,27
 951 84 951 84 951 91 c 1,28,-1
 951 91 l 1,0,-1
951 692 m 1,29,30
 951 703 951 703 950 717 c 128,-1,31
 949 731 949 731 933 731 c 2,32,-1
 91 731 l 2,33,34
 84 731 84 731 78.5 725.5 c 128,-1,35
 73 720 73 720 73 713 c 0,36,37
 73 664 73 664 96 622.5 c 128,-1,38
 119 581 119 581 157 551 c 0,39,40
 215 506 215 506 272 460.5 c 128,-1,41
 329 415 329 415 386 370 c 0,42,43
 409 351 409 351 445 322 c 128,-1,44
 481 293 481 293 511 293 c 2,45,-1
 513 293 l 2,46,47
 543 293 543 293 579 322 c 128,-1,48
 615 351 615 351 638 370 c 0,49,50
 695 415 695 415 752 460.5 c 128,-1,51
 809 506 809 506 867 551 c 0,52,53
 895 573 895 573 923 614.5 c 128,-1,54
 951 656 951 656 951 692 c 1,55,-1
 951 692 l 1,29,30
1024 713 m 2,56,-1
 1024 91 l 2,57,58
 1024 54 1024 54 997 27 c 128,-1,59
 970 0 970 0 933 0 c 2,60,-1
 91 0 l 2,61,62
 54 0 54 0 27 27 c 128,-1,63
 0 54 0 54 0 91 c 2,64,-1
 0 713 l 2,65,66
 0 751 0 751 27 778 c 128,-1,67
 54 805 54 805 91 805 c 2,68,-1
 933 805 l 2,69,70
 970 805 970 805 997 778 c 128,-1,71
 1024 751 1024 751 1024 713 c 2,56,-1
EndSplineSet
EndChar

StartChar: uniEA92
Encoding: 60050 60050 28
Width: 1024
GlyphClass: 1
Flags: W
LayerCount: 2
Fore
SplineSet
512 868 m 1,0,1
 615 868 615 868 646.5 867.5 c 128,-1,2
 678 867 678 867 719 865 c 0,3,4
 756 863 756 863 778 857.5 c 128,-1,5
 800 852 800 852 814 847 c 0,6,7
 832 840 832 840 845.5 831 c 128,-1,8
 859 822 859 822 873 809 c 0,9,10
 886 796 886 796 895 782 c 128,-1,11
 904 768 904 768 911 750 c 0,12,13
 916 737 916 737 921.5 715 c 128,-1,14
 927 693 927 693 929 655 c 0,15,16
 930 615 930 615 931 583 c 128,-1,17
 932 551 932 551 932 448 c 0,18,19
 932 346 932 346 931 314 c 128,-1,20
 930 282 930 282 929 242 c 0,21,22
 927 204 927 204 921.5 182 c 128,-1,23
 916 160 916 160 911 147 c 0,24,25
 904 129 904 129 895 115 c 128,-1,26
 886 101 886 101 873 88 c 0,27,28
 859 74 859 74 845.5 65 c 128,-1,29
 832 56 832 56 814 49 c 0,30,31
 800 44 800 44 778 38.5 c 128,-1,32
 756 33 756 33 719 32 c 0,33,34
 678 30 678 30 646.5 29.5 c 128,-1,35
 615 29 615 29 512 29 c 0,36,37
 410 29 410 29 378 29.5 c 128,-1,38
 346 30 346 30 305 32 c 0,39,40
 268 33 268 33 246 38.5 c 128,-1,41
 224 44 224 44 210 49 c 0,42,43
 193 56 193 56 179 65 c 128,-1,44
 165 74 165 74 152 88 c 0,45,46
 138 101 138 101 129 115 c 128,-1,47
 120 129 120 129 113 146 c 0,48,49
 108 160 108 160 102.5 182 c 128,-1,50
 97 204 97 204 96 241 c 0,51,52
 94 282 94 282 93.5 314 c 128,-1,53
 93 346 93 346 93 448 c 0,54,55
 93 551 93 551 93.5 583 c 128,-1,56
 94 615 94 615 96 655 c 0,57,58
 97 692 97 692 102.5 714 c 128,-1,59
 108 736 108 736 113 750 c 0,60,61
 120 768 120 768 129 781.5 c 128,-1,62
 138 795 138 795 151 809 c 0,63,64
 165 822 165 822 178.5 831 c 128,-1,65
 192 840 192 840 210 847 c 0,66,67
 224 852 224 852 246 857.5 c 128,-1,68
 268 863 268 863 305 865 c 0,69,70
 346 867 346 867 377.5 867.5 c 128,-1,71
 409 868 409 868 512 868 c 1,72,-1
 512 868 l 1,0,1
512 960 m 1,73,74
 408 960 408 960 375 959.5 c 128,-1,75
 342 959 342 959 301 957 c 256,76,77
 260 955 260 955 230.5 949 c 128,-1,78
 201 943 201 943 177 933 c 0,79,80
 151 923 151 923 129 909 c 128,-1,81
 107 895 107 895 86 874 c 256,82,83
 65 853 65 853 51 831 c 128,-1,84
 37 809 37 809 27 783 c 0,85,86
 17 759 17 759 11 729.5 c 128,-1,87
 5 700 5 700 3 659 c 256,88,89
 1 618 1 618 0.5 585 c 128,-1,90
 0 552 0 552 0 448 c 256,91,92
 0 344 0 344 0.5 311 c 128,-1,93
 1 278 1 278 3 237 c 256,94,95
 5 196 5 196 11 166.5 c 128,-1,96
 17 137 17 137 27 113 c 0,97,98
 37 87 37 87 51 65 c 128,-1,99
 65 43 65 43 86 22 c 256,100,101
 107 1 107 1 129 -13 c 128,-1,102
 151 -27 151 -27 177 -37 c 0,103,104
 201 -46 201 -46 230.5 -52.5 c 128,-1,105
 260 -59 260 -59 301 -61 c 256,106,107
 342 -63 342 -63 375 -63.5 c 128,-1,108
 408 -64 408 -64 512 -64 c 256,109,110
 616 -64 616 -64 649 -63.5 c 128,-1,111
 682 -63 682 -63 723 -61 c 256,112,113
 764 -59 764 -59 793.5 -52.5 c 128,-1,114
 823 -46 823 -46 847 -37 c 0,115,116
 872 -27 872 -27 894 -13 c 128,-1,117
 916 1 916 1 938 22 c 0,118,119
 959 43 959 43 973 65 c 128,-1,120
 987 87 987 87 997 113 c 0,121,122
 1006 137 1006 137 1012.5 166.5 c 128,-1,123
 1019 196 1019 196 1020 237 c 0,124,125
 1022 278 1022 278 1022.5 311 c 128,-1,126
 1023 344 1023 344 1023 448 c 256,127,128
 1023 552 1023 552 1022.5 585 c 128,-1,129
 1022 618 1022 618 1020 659 c 0,130,131
 1019 700 1019 700 1012.5 729.5 c 128,-1,132
 1006 759 1006 759 997 783 c 0,133,134
 987 808 987 808 973 830.5 c 128,-1,135
 959 853 959 853 938 874 c 256,136,137
 917 895 917 895 895 909 c 128,-1,138
 873 923 873 923 847 933 c 0,139,140
 823 942 823 942 793.5 948.5 c 128,-1,141
 764 955 764 955 723 957 c 256,142,143
 682 959 682 959 649 959.5 c 128,-1,144
 616 960 616 960 512 960 c 1,145,-1
 512 960 l 1,146,-1
 512 960 l 1,73,74
512 711 m 256,147,148
 458 711 458 711 410 690 c 0,149,150
 362 670 362 670 326 634 c 128,-1,151
 290 598 290 598 270 550 c 0,152,153
 249 502 249 502 249 448 c 256,154,155
 249 394 249 394 270 346 c 0,156,157
 290 298 290 298 326 262 c 128,-1,158
 362 226 362 226 410 206 c 0,159,160
 458 185 458 185 512 185 c 256,161,162
 566 185 566 185 614 206 c 0,163,164
 662 226 662 226 698 262 c 128,-1,165
 734 298 734 298 754 346 c 0,166,167
 775 394 775 394 775 448 c 256,168,169
 775 502 775 502 754 550 c 0,170,171
 734 598 734 598 698 634 c 128,-1,172
 662 670 662 670 614 690 c 0,173,174
 566 711 566 711 512 711 c 256,147,148
512 277 m 256,175,176
 441 277 441 277 391 327 c 128,-1,177
 341 377 341 377 341 448 c 256,178,179
 341 519 341 519 391 569 c 128,-1,180
 441 619 441 619 512 619 c 256,181,182
 583 619 583 619 633 569 c 128,-1,183
 683 519 683 519 683 448 c 256,184,185
 683 377 683 377 633 327 c 128,-1,186
 583 277 583 277 512 277 c 256,175,176
847 721 m 0,187,188
 847 696 847 696 829 678 c 128,-1,189
 811 660 811 660 785 660 c 0,190,191
 760 660 760 660 742 678 c 128,-1,192
 724 696 724 696 724 721 c 0,193,194
 724 747 724 747 742 765 c 128,-1,195
 760 783 760 783 785 783 c 0,196,197
 811 783 811 783 829 765 c 128,-1,198
 847 747 847 747 847 721 c 0,187,188
EndSplineSet
EndChar

StartChar: uniE91A
Encoding: 59674 59674 29
Width: 1024
LayerCount: 2
Fore
SplineSet
901.120117188 632.3203125 m 128,-1,1
 901.120117188 530.496169235 901.120117188 530.496169235 829.152015282 458.527869774 c 128,-1,2
 757.183913376 386.559570312 757.183913376 386.559570312 655.360351562 386.559570312 c 128,-1,3
 553.536132812 386.559570312 553.536132812 386.559570312 481.567871094 458.527832031 c 128,-1,4
 409.599609375 530.49609375 409.599609375 530.49609375 409.599609375 632.3203125 c 128,-1,5
 409.599609375 734.143874313 409.599609375 734.143874313 481.567908836 806.111976219 c 128,-1,6
 553.536208298 878.080078125 553.536208298 878.080078125 655.360351562 878.080078125 c 128,-1,7
 757.183837891 878.080078125 757.183837891 878.080078125 829.151977539 806.111938477 c 128,-1,0
 901.120117188 734.143798828 901.120117188 734.143798828 901.120117188 632.3203125 c 128,-1,1
983.040039062 632.3203125 m 0,8,9
 983.040039062 721.324518078 983.040039062 721.324518078 939.187099647 796.809319624 c 128,-1,10
 895.334160232 872.29412117 895.334160232 872.29412117 819.849358686 916.147060585 c 128,-1,11
 744.36455714 960 744.36455714 960 655.360351562 960 c 128,-1,12
 566.355686386 960 566.355686386 960 490.870659878 916.147051737 c 128,-1,13
 415.385633369 872.294103473 415.385633369 872.294103473 371.532660435 796.809328472 c 128,-1,14
 327.6796875 721.32455347 327.6796875 721.32455347 327.6796875 632.3203125 c 128,-1,15
 327.6796875 543.315611931 327.6796875 543.315611931 371.532669283 467.830611967 c 128,-1,16
 415.385651066 392.345612003 415.385651066 392.345612003 490.87065103 348.49263022 c 128,-1,17
 566.355650994 304.639648438 566.355650994 304.639648438 655.360351562 304.639648438 c 0,18,19
 771.243512678 304.639648438 771.243512678 304.639648438 861.19921875 377.358398438 c 1,20,21
 863.82407299 365.940575448 863.82407299 365.940575448 872.162109375 357.602539062 c 2,22,-1
 954.083007812 275.682617188 l 2,23,24
 966.0859375 263.6796875 966.0859375 263.6796875 983.040039062 263.6796875 c 128,-1,25
 999.994873047 263.6796875 999.994873047 263.6796875 1011.99743652 275.682250977 c 128,-1,26
 1024 287.684814453 1024 287.684814453 1024 304.639648438 c 128,-1,27
 1024 321.594726562 1024 321.594726562 1011.99707031 333.59765625 c 2,28,-1
 930.077148438 415.517578125 l 2,29,30
 921.739257813 423.85546875 921.739257813 423.85546875 910.322265625 426.48046875 c 1,31,32
 983.040039062 516.436898377 983.040039062 516.436898377 983.040039062 632.3203125 c 0,8,9
331.875976562 761.307617188 m 1,33,34
 307.200195312 699.481185702 307.200195312 699.481185702 307.200195312 632.3203125 c 0,35,36
 307.200195312 571.284926839 307.200195312 571.284926839 327.680664062 514.387695312 c 0,37,38
 327.6796875 512.791015625 327.6796875 512.791015625 327.6796875 509.440429688 c 2,39,-1
 327.6796875 468.48046875 l 1,40,-1
 336.139648438 468.48046875 l 1,41,-1
 339.573242188 468.48046875 l 1,42,-1
 341.333007812 468.48046875 l 1,43,-1
 348.083007812 468.48046875 l 1,44,45
 385.775562877 397.934677442 385.775562877 397.934677442 450.559570312 350.736328125 c 1,46,-1
 450.559570312 263.6796875 l 1,47,-1
 368.639648438 263.6796875 l 1,48,-1
 368.639648438 386.559570312 l 1,49,-1
 341.333007812 386.559570312 l 2,50,51
 298.544299532 386.559570312 298.544299532 386.559570312 285.231445312 385.35546875 c 0,52,53
 271.498084451 384.110947684 271.498084451 384.110947684 266.240234375 381.071289062 c 0,54,55
 256.734026324 375.580171708 256.734026324 375.580171708 251.247070312 366.080078125 c 0,56,57
 248.208833867 360.81441587 248.208833867 360.81441587 246.96484375 347.086914062 c 0,58,59
 245.759765625 333.787619349 245.759765625 333.787619349 245.759765625 290.98828125 c 2,60,-1
 245.759765625 222.719726562 l 2,61,62
 245.759765625 169.657803241 245.759765625 169.657803241 248.12109375 157.786132812 c 0,63,64
 255.393336858 121.226430226 255.393336858 121.226430226 281.750811712 94.8685730526 c 128,-1,65
 308.108286566 68.5107158795 308.108286566 68.5107158795 344.666992188 61.2392578125 c 0,66,67
 356.526712842 58.8798828125 356.526712842 58.8798828125 409.599609375 58.8798828125 c 128,-1,68
 462.672328672 58.8798828125 462.672328672 58.8798828125 474.534179688 61.2392578125 c 0,69,70
 511.090820312 68.5107421875 511.090820312 68.5107421875 537.448730469 94.8686523437 c 128,-1,71
 563.806640625 121.2265625 563.806640625 121.2265625 571.081054688 157.786132812 c 0,72,73
 573.440429688 169.653341485 573.440429688 169.653341485 573.440429688 222.719726562 c 2,74,-1
 573.440429688 290.98828125 l 1,75,-1
 573.440429688 293.8515625 l 1,76,77
 613.618918043 284.16015625 613.618918043 284.16015625 655.360351562 284.16015625 c 1,78,-1
 655.360351562 263.6796875 l 1,79,-1
 819.200195312 263.6796875 l 1,80,-1
 819.200195312 181.759765625 l 1,81,-1
 655.1015625 181.759765625 l 1,82,83
 654.481727339 157.167260515 654.481727339 157.167260515 651.423828125 141.803710938 c 0,84,85
 650.807858172 138.690936273 650.807858172 138.690936273 649.998046875 135.196289062 c 0,86,87
 698.739407415 119.587626383 698.739407415 119.587626383 735.084960938 66.5107421875 c 0,88,89
 778.240234375 3.47922792013 778.240234375 3.47922792013 778.240234375 -64 c 1,90,-1
 696.3203125 -64 l 1,91,92
 696.3203125 -21.8731396212 696.3203125 -21.8731396212 667.4921875 20.2255859375 c 0,93,94
 641.03283079 58.8725131221 641.03283079 58.8725131221 614.404296875 58.8798828125 c 1,95,96
 567.364085353 -3.8171855322 567.364085353 -3.8171855322 490.516601562 -19.103515625 c 0,97,98
 470.676559055 -23.0531808199 470.676559055 -23.0531808199 414.342773438 -23.0400390625 c 2,99,-1
 409.599609375 -23.0400390625 l 1,100,-1
 404.857421875 -23.0400390625 l 2,101,102
 348.525587877 -23.05318052 348.525587877 -23.05318052 328.685546875 -19.103515625 c 0,103,104
 251.837846926 -3.81743794595 251.837846926 -3.81743794595 204.795898438 58.8798828125 c 1,105,106
 178.167364872 58.872513632 178.167364872 58.872513632 151.708007812 20.2255859375 c 0,107,108
 122.879882812 -21.8731396212 122.879882812 -21.8731396212 122.879882812 -64 c 1,109,-1
 40.9599609375 -64 l 1,110,111
 40.9599609375 3.48065426292 40.9599609375 3.48065426292 84.1142578125 66.5107421875 c 0,112,113
 120.456841117 119.5859466 120.456841117 119.5859466 169.202148438 135.196289062 c 0,114,115
 168.431418844 138.503205328 168.431418844 138.503205328 167.775390625 141.803710938 c 0,116,117
 164.715793698 157.188637733 164.715793698 157.188637733 164.099609375 181.759765625 c 1,118,-1
 0 181.759765625 l 1,119,-1
 0 263.6796875 l 1,120,-1
 163.83984375 263.6796875 l 1,121,-1
 163.83984375 290.98828125 l 1,122,-1
 163.83984375 292.745117188 l 2,123,124
 163.83984375 304.31640625 163.83984375 304.31640625 163.862304688 309.796875 c 1,125,126
 110.288938721 323.575696302 110.288938721 323.575696302 75.6244498294 367.684190602 c 128,-1,127
 40.9599609375 411.792684902 40.9599609375 411.792684902 40.9599609375 468.48046875 c 2,128,-1
 40.9599609375 509.440429688 l 1,129,-1
 122.879882812 509.440429688 l 1,130,-1
 122.879882812 468.48046875 l 2,131,132
 122.879882812 443.210854626 122.879882812 443.210854626 136.883652871 422.656955637 c 128,-1,133
 150.887422929 402.103056648 150.887422929 402.103056648 173.514648438 392.745117188 c 1,134,135
 176.381701033 400.248577417 176.381701033 400.248577417 180.302734375 407.040039062 c 0,136,137
 196.770249859 435.55848357 196.770249859 435.55848357 225.280273438 452.018554688 c 0,138,139
 234.770312858 457.498698761 234.770312858 457.498698761 245.759765625 460.956054688 c 1,140,-1
 245.759765625 509.440429688 l 1,141,-1
 245.759765625 510.750976562 l 2,142,143
 245.759765625 544.233055497 245.759765625 544.233055497 246.634765625 557.05078125 c 0,144,145
 248.25862605 580.87314087 248.25862605 580.87314087 255.11328125 597.423828125 c 0,146,147
 270.347389801 634.201271288 270.347389801 634.201271288 304.251953125 655.059570312 c 1,148,-1
 252.639648438 732.479492188 l 1,149,-1
 320.80078125 777.919921875 l 1,150,-1
 331.875976562 761.307617188 l 1,33,34
436.174804688 684.580078125 m 1,151,-1
 498.397460938 777.919921875 l 1,152,-1
 566.5625 732.479492188 l 1,153,-1
 514.94921875 655.059570312 l 1,154,155
 548.856894701 634.197495772 548.856894701 634.197495772 564.084960938 597.423828125 c 0,156,157
 570.933979712 580.886750119 570.933979712 580.886750119 572.567382812 557.05078125 c 0,158,159
 573.440429688 544.21875 573.440429688 544.21875 573.440429688 510.750976562 c 2,160,-1
 573.440429688 509.440429688 l 1,161,-1
 573.440429688 460.956054688 l 1,162,163
 584.431082366 457.498806829 584.431082366 457.498806829 593.919921875 452.018554688 c 0,164,165
 622.102787798 435.745914509 622.102787798 435.745914509 638.538085938 407.658203125 c 1,166,167
 551.585360432 414.078852896 551.585360432 414.078852896 491.51953125 477.696289062 c 1,168,-1
 491.51953125 509.440429688 l 2,169,170
 491.51953125 541.480066636 491.51953125 541.480066636 490.8359375 551.474609375 c 0,171,172
 490.121954934 561.914693904 490.121954934 561.914693904 488.403320312 566.07421875 c 0,173,174
 481.909573059 581.747361193 481.909573059 581.747361193 466.235351562 588.2421875 c 0,175,176
 462.076984191 589.962726894 462.076984191 589.962726894 451.6328125 590.674804688 c 0,177,178
 444.867917749 591.136771597 444.867917749 591.136771597 433.811523438 591.272460938 c 1,179,180
 430.080078125 611.549920333 430.080078125 611.549920333 430.080078125 632.319335938 c 0,181,182
 430.080078125 658.931748308 430.080078125 658.931748308 436.174804688 684.580078125 c 1,151,-1
669.044921875 407.44921875 m 1,183,184
 696.3203125 431.889190749 696.3203125 431.889190749 696.3203125 468.48046875 c 2,185,-1
 696.3203125 509.440429688 l 1,186,-1
 778.240234375 509.440429688 l 1,187,-1
 778.240234375 468.48046875 l 2,188,189
 778.240234375 455.148771262 778.240234375 455.148771262 776.130859375 442.114257812 c 1,190,191
 727.127020772 410.928884724 727.127020772 410.928884724 669.044921875 407.44921875 c 1,183,184
EndSplineSet
EndChar
